<?xml version="1.0" encoding="UTF-8" standalone="no"?><!DOCTYPE svg PUBLIC "-//W3C//DTD SVG 1.1//EN" "http://www.w3.org/Graphics/SVG/1.1/DTD/svg11.dtd"><svg width="100%" height="100%" viewBox="0 0 72 72" version="1.1" xmlns="http://www.w3.org/2000/svg" xmlns:xlink="http://www.w3.org/1999/xlink" xml:space="preserve" style="fill-rule:evenodd;clip-rule:evenodd;stroke-linejoin:round;stroke-miterlimit:1.41421;"><path d="M71.998,17.252c0,-9.521 -7.73,-17.252 -17.252,-17.252l-37.494,0c-9.521,0 -17.252,7.731 -17.252,17.252l0,37.496c0,9.521 7.731,17.252 17.252,17.252l37.494,0c9.522,0 17.252,-7.731 17.252,-17.252l0,-37.496Z" style="fill:url(#_Radial1);"/><g id="电路"><rect x="29.706" y="22.762" width="0.9" height="24.009" style="fill:#74bfee;"/><rect x="25.166" y="0" width="0.9" height="20.289" style="fill:#74bfee;"/><rect x="25.166" y="23.61" width="0.9" height="7.209" style="fill:#74bfee;"/><rect x="20.104" y="23.374" width="0.9" height="16.059" style="fill:#74bfee;"/><rect x="45.996" y="14.596" width="0.9" height="25.104" style="fill:#74bfee;"/><rect x="9.298" y="15.181" width="0.9" height="15.114" style="fill:#74bfee;"/><rect x="6.688" y="41.216" width="0.9" height="17.597" style="fill:#74bfee;"/><rect x="53.667" y="0" width="0.9" height="12.669" style="fill:#74bfee;"/><rect x="15.958" y="41.49" width="0.9" height="7.089" style="fill:#74bfee;"/><path d="M10.286,1.458l0.002,10.082l-0.9,0l0.023,-8.285l-0.001,-0.398l-0.002,-0.962l0.878,-0.437Z" style="fill:#74bfee;"/><rect x="24.517" y="36.023" width="0.9" height="20.117" style="fill:#74bfee;"/><rect x="49.746" y="57.001" width="0.9" height="7.509" style="fill:#74bfee;"/><rect x="18.577" y="55.446" width="0.9" height="16.554" style="fill:#74bfee;"/><rect x="61.686" y="22.058" width="0.9" height="18.812" style="fill:#74bfee;"/><path d="M62.675,70.09l0,-26.319l-0.9,0l0,26.753l0.9,-0.434Z" style="fill:#74bfee;"/><rect x="38.411" y="30.111" width="0.9" height="41.889" style="fill:#74bfee;"/><rect x="32.621" y="9.061" width="0.9" height="13.809" style="fill:#74bfee;"/><rect x="32.621" y="0" width="0.9" height="3.234" style="fill:#74bfee;"/><rect x="26.142" y="69.621" width="0.9" height="2.379" style="fill:#74bfee;"/><rect x="38.411" y="0" width="0.9" height="26.274" style="fill:#74bfee;"/><path d="M25.981,6.797l0,0.9l4.98,0l0,-0.9l-4.98,0Z" style="fill:#74bfee;"/><path d="M30.286,28.266l0,0.9l6.525,0l0,-0.9l-6.525,0Z" style="fill:#74bfee;"/><path d="M31.801,48.396l0,0.9l6.87,0l0,-0.9l-6.87,0Z" style="fill:#74bfee;"/><path d="M39.241,22.056l0,0.9l22.829,0l0,-0.9l-22.829,0Z" style="fill:#74bfee;"/><path d="M39.241,31.956l0,0.9l15.749,0l0,-0.9l-15.749,0Z" style="fill:#74bfee;"/><path d="M49.741,63.696l0,0.9l12.359,0l0,-0.9l-12.359,0Z" style="fill:#74bfee;"/><path d="M28.276,68.106l0,0.9l10.515,0l0,-0.9l-10.515,0Z" style="fill:#74bfee;"/><path d="M8.656,60.246l0,0.9l9.975,0l0,-0.9l-9.975,0Z" style="fill:#74bfee;"/><path d="M53.97,50.256l0,0.9l8.13,0l0,-0.9l-8.13,0Z" style="fill:#74bfee;"/><path d="M18.586,55.416l0,0.9l29.745,0l0,-0.9l-29.745,0Z" style="fill:#74bfee;"/><path d="M58.14,31.956l0,0.9l13.83,0l0,-0.9l-13.83,0Z" style="fill:#74bfee;"/><path d="M63.81,41.766l0,0.9l8.19,0l0,-0.9l-8.19,0Z" style="fill:#74bfee;"/><path d="M48.466,12.546l0,0.9l23.116,0.09l-0.234,-0.9l-22.882,-0.09" style="fill:#74bfee;"/><path d="M24.534,35.946l0,0.9l5.317,0l0,-0.9l-5.317,0Z" style="fill:#74bfee;"/><path d="M0,29.946l0,0.9l26.047,0l0,-0.9l-26.047,0Z" style="fill:#74bfee;"/><path d="M11.115,13.026l0,0.9l14.549,0l0,-0.9l-14.549,0Z" style="fill:#74bfee;"/><path d="M6.705,41.196l0,0.9l12.097,0l0,-0.9l-12.097,0Z" style="fill:#74bfee;"/><path d="M0,18.876l0,0.9l9.877,0l0,-0.9l-9.877,0Z" style="fill:#74bfee;"/><path d="M9.742,23.376l0,0.9l11.07,0l0,-0.9l-11.07,0Z" style="fill:#74bfee;"/><path d="M22.328,41.283l0,0.9l10.86,0l0,-0.9l-10.86,0Z" style="fill:#74bfee;"/><path d="M36.158,41.283l0,0.9l8.64,0l0,-0.9l-8.64,0Z" style="fill:#74bfee;"/><path d="M27.854,21.969l0,0.9l5.018,0l0,-0.9l-5.018,0Z" style="fill:#74bfee;"/><path d="M32.629,2.331l0,0.9l6.097,0l0,-0.9l-6.097,0Z" style="fill:#74bfee;"/><path d="M20.607,39.15c1.242,0 2.25,1.008 2.25,2.25c0,1.242 -1.008,2.25 -2.25,2.25c-1.241,0 -2.25,-1.008 -2.25,-2.25c0,-1.242 1.009,-2.25 2.25,-2.25Zm0,1.125c0.621,0 1.125,0.504 1.125,1.125c0,0.621 -0.504,1.125 -1.125,1.125c-0.621,0 -1.125,-0.504 -1.125,-1.125c0,-0.621 0.504,-1.125 1.125,-1.125Z" style="fill:#74bfee;"/><path d="M7.108,57.99c1.241,0 2.25,1.008 2.25,2.25c0,1.242 -1.009,2.25 -2.25,2.25c-1.242,0 -2.25,-1.008 -2.25,-2.25c0,-1.242 1.008,-2.25 2.25,-2.25Zm0,1.125c0.621,0 1.125,0.504 1.125,1.125c0,0.621 -0.504,1.125 -1.125,1.125c-0.621,0 -1.125,-0.504 -1.125,-1.125c0,-0.621 0.504,-1.125 1.125,-1.125Z" style="fill:#74bfee;"/><path d="M26.637,65.79c1.242,0 2.25,1.008 2.25,2.25c0,1.242 -1.008,2.25 -2.25,2.25c-1.242,0 -2.25,-1.008 -2.25,-2.25c0,-1.242 1.008,-2.25 2.25,-2.25Zm0,1.125c0.621,0 1.125,0.504 1.125,1.125c0,0.621 -0.504,1.125 -1.125,1.125c-0.621,0 -1.125,-0.504 -1.125,-1.125c0,-0.621 0.504,-1.125 1.125,-1.125Z" style="fill:#74bfee;"/><path d="M33.072,4.713c1.242,0 2.25,1.009 2.25,2.25c0,1.242 -1.008,2.25 -2.25,2.25c-1.242,0 -2.25,-1.008 -2.25,-2.25c0,-1.241 1.008,-2.25 2.25,-2.25Zm0,1.125c0.621,0 1.125,0.505 1.125,1.125c0,0.621 -0.504,1.125 -1.125,1.125c-0.621,0 -1.125,-0.504 -1.125,-1.125c0,-0.62 0.504,-1.125 1.125,-1.125Z" style="fill:#74bfee;"/><path d="M38.877,26.133c1.242,0 2.25,1.009 2.25,2.25c0,1.242 -1.008,2.25 -2.25,2.25c-1.242,0 -2.25,-1.008 -2.25,-2.25c0,-1.241 1.008,-2.25 2.25,-2.25Zm0,1.125c0.621,0 1.125,0.505 1.125,1.125c0,0.621 -0.504,1.125 -1.125,1.125c-0.621,0 -1.125,-0.504 -1.125,-1.125c0,-0.62 0.504,-1.125 1.125,-1.125Z" style="fill:#74bfee;"/><path d="M56.756,29.853c1.242,0 2.25,1.009 2.25,2.25c0,1.242 -1.008,2.25 -2.25,2.25c-1.241,0 -2.249,-1.008 -2.249,-2.25c0,-1.241 1.008,-2.25 2.249,-2.25Zm0,1.125c0.621,0 1.125,0.505 1.125,1.125c0,0.621 -0.504,1.125 -1.125,1.125c-0.62,0 -1.124,-0.504 -1.124,-1.125c0,-0.62 0.504,-1.125 1.124,-1.125Z" style="fill:#74bfee;"/><path d="M50.187,53.163c1.241,0 2.25,1.009 2.25,2.25c0,1.242 -1.009,2.25 -2.25,2.25c-1.242,0 -2.25,-1.008 -2.25,-2.25c0,-1.241 1.008,-2.25 2.25,-2.25Zm0,1.125c0.621,0 1.125,0.505 1.125,1.125c0,0.621 -0.504,1.125 -1.125,1.125c-0.621,0 -1.125,-0.504 -1.125,-1.125c0,-0.62 0.504,-1.125 1.125,-1.125Z" style="fill:#74bfee;"/><path d="M62.18,39.993c1.241,0 2.249,1.009 2.249,2.25c0,1.242 -1.008,2.25 -2.249,2.25c-1.242,0 -2.25,-1.008 -2.25,-2.25c0,-1.241 1.008,-2.25 2.25,-2.25Zm0,1.125c0.62,0 1.125,0.505 1.125,1.125c0,0.621 -0.505,1.125 -1.125,1.125c-0.621,0 -1.125,-0.504 -1.125,-1.125c0,-0.62 0.504,-1.125 1.125,-1.125Z" style="fill:#74bfee;"/><path d="M46.484,10.62c1.242,0 2.25,1.008 2.25,2.25c0,1.242 -1.008,2.25 -2.25,2.25c-1.242,0 -2.25,-1.008 -2.25,-2.25c0,-1.242 1.008,-2.25 2.25,-2.25Zm0,1.125c0.621,0 1.125,0.504 1.125,1.125c0,0.621 -0.504,1.125 -1.125,1.125c-0.621,0 -1.125,-0.504 -1.125,-1.125c0,-0.621 0.504,-1.125 1.125,-1.125Z" style="fill:#74bfee;"/><path d="M34.677,39.153c1.242,0 2.25,1.009 2.25,2.25c0,1.242 -1.008,2.25 -2.25,2.25c-1.242,0 -2.25,-1.008 -2.25,-2.25c0,-1.241 1.008,-2.25 2.25,-2.25Zm0,1.125c0.621,0 1.125,0.505 1.125,1.125c0,0.621 -0.504,1.125 -1.125,1.125c-0.621,0 -1.125,-0.504 -1.125,-1.125c0,-0.62 0.504,-1.125 1.125,-1.125Z" style="fill:#74bfee;"/><path d="M30.177,46.143c1.242,0 2.25,1.009 2.25,2.25c0,1.242 -1.008,2.25 -2.25,2.25c-1.242,0 -2.25,-1.008 -2.25,-2.25c0,-1.241 1.008,-2.25 2.25,-2.25Zm0,1.125c0.621,0 1.125,0.505 1.125,1.125c0,0.621 -0.504,1.125 -1.125,1.125c-0.621,0 -1.125,-0.504 -1.125,-1.125c0,-0.62 0.504,-1.125 1.125,-1.125Z" style="fill:#74bfee;"/><path d="M46.529,39.153c1.242,0 2.25,1.009 2.25,2.25c0,1.242 -1.008,2.25 -2.25,2.25c-1.242,0 -2.25,-1.008 -2.25,-2.25c0,-1.241 1.008,-2.25 2.25,-2.25Zm0,1.125c0.621,0 1.125,0.505 1.125,1.125c0,0.621 -0.504,1.125 -1.125,1.125c-0.621,0 -1.125,-0.504 -1.125,-1.125c0,-0.62 0.504,-1.125 1.125,-1.125Z" style="fill:#74bfee;"/><path d="M25.782,19.743c1.242,0 2.25,1.009 2.25,2.25c0,1.242 -1.008,2.25 -2.25,2.25c-1.242,0 -2.25,-1.008 -2.25,-2.25c0,-1.241 1.008,-2.25 2.25,-2.25Zm0,1.125c0.621,0 1.125,0.505 1.125,1.125c0,0.621 -0.504,1.125 -1.125,1.125c-0.621,0 -1.125,-0.504 -1.125,-1.125c0,-0.62 0.504,-1.125 1.125,-1.125Z" style="fill:#74bfee;"/><path d="M9.808,10.899c1.241,0 2.25,1.008 2.25,2.25c0,1.242 -1.009,2.25 -2.25,2.25c-1.242,0 -2.25,-1.008 -2.25,-2.25c0,-1.242 1.008,-2.25 2.25,-2.25Zm0,1.125c0.62,0 1.125,0.504 1.125,1.125c0,0.621 -0.505,1.125 -1.125,1.125c-0.621,0 -1.125,-0.504 -1.125,-1.125c0,-0.621 0.504,-1.125 1.125,-1.125Z" style="fill:#74bfee;"/></g><g id="S"><g><path d="M28.151,18.269l26.547,0l0,2.432l-26.547,0l0,-1.852l0,-0.58" style="fill:#fff;"/><clipPath id="_clip2"><rect x="26.792" y="18.27" width="8.1" height="6.48"/></clipPath><g clip-path="url(#_clip2)"><path d="M30.842,16.65c-2.236,0 -4.05,1.813 -4.05,4.05l4.05,0l0,-4.05Z" style="fill:#fff;"/></g><clipPath id="_clip3"><rect x="37.052" y="37.611" width="8.1" height="6.48"/></clipPath><g clip-path="url(#_clip3)"><path d="M41.102,35.991c2.237,0 4.05,1.813 4.05,4.05l-4.05,0l0,-4.05Z" style="fill:#fff;"/></g><path d="M22.744,20.639l0,5.693l2.432,0l0,-5.693l-2.432,0Z" style="fill:#fff;"/><path d="M16.594,25.708l0,6.65l2.432,0l0,-6.65l-2.432,0Z" style="fill:#fff;"/><path d="M46.778,39.317l0,5.858l2.406,0l0,-5.858l-2.406,0Z" style="fill:#fff;"/><path d="M52.541,45.635l0,6.56l2.432,0l0,-6.56l-2.432,0Z" style="fill:#fff;"/><rect x="30.875" y="12.596" width="18.15" height="2.432" style="fill:#fff;"/><rect x="30.757" y="31.91" width="10.503" height="2.432" style="fill:#fff;"/><clipPath id="_clip4"><rect x="30.757" y="31.91" width="10.503" height="2.432"/></clipPath><g clip-path="url(#_clip4)"><path d="M22.572,18.397l0.022,0.001l0.023,0.003l0.022,0.003l0.022,0.005l0.021,0.006l0.022,0.007l0.021,0.008l0.02,0.008l0.02,0.01l0.02,0.011l0.019,0.012l0.018,0.013l0.018,0.014l0.017,0.014l0.017,0.016l0.015,0.016l0.015,0.017l0.014,0.018l0.012,0.018l0.012,0.019l0.011,0.02l0.01,0.02l0.009,0.02l0.008,0.021l0.007,0.021l0.006,0.022l0.005,0.022l0.004,0.022l0.002,0.022l0.002,0.023l0,0.022l-0.001,0.023l0,0.003l-0.001,0.016l-0.002,0.016l-0.002,0.016l-0.001,0.003l-0.004,0.02l-0.004,0.019l-0.005,0.02l-0.012,0.033l-0.011,0.027l-0.011,0.024l-0.011,0.021l-0.012,0.021l-0.006,0.009l-0.003,0.032l-0.003,0.021l-0.004,0.022l-0.005,0.021l-0.001,0.004l-0.005,0.018l-0.006,0.017l-0.007,0.017l-0.001,0.003l-0.008,0.021l-0.01,0.019l-0.01,0.019l-0.002,0.003l-0.01,0.017l-0.011,0.016l-0.011,0.015l-0.001,0.001l-0.001,0.004l-0.006,0.018l-0.008,0.024l-0.01,0.027l-0.006,0.017l-0.007,0.018l-0.008,0.019l-0.009,0.02l-0.01,0.022l-0.012,0.023l-0.013,0.024l0,0l-0.001,0.012l-0.001,0.019l-0.002,0.02l-0.002,0.023l-0.004,0.025l-0.005,0.028l-0.008,0.031l-0.01,0.034l-0.014,0.037l-0.005,0.012l0.001,0.01l0,0.015l0.002,0.035l0.002,0.036l0.003,0.037l0.006,0.075l0.003,0.035l0.003,0.034l0.002,0.033l0.001,0.02l0,0.018l0,1.504l0,0.022l-0.002,0.023l-0.003,0.022l-0.004,0.022l-0.005,0.022l-0.006,0.021l-0.007,0.022l-0.008,0.021l-0.009,0.02l-0.011,0.02l-0.011,0.019l-0.012,0.019l-0.013,0.019l-0.014,0.017l-0.015,0.017l-0.016,0.016l-0.016,0.015l-0.017,0.015l-0.018,0.013l-0.019,0.013l-0.019,0.012l-0.02,0.01l-0.02,0.01l-0.02,0.009l-0.022,0.007l-0.021,0.007l-0.022,0.006l-0.022,0.004l-0.022,0.003l-0.022,0.003l-0.023,0.001l-0.022,0l-0.023,-0.001l-0.022,-0.003l-0.022,-0.003l-0.022,-0.004l-0.022,-0.006l-0.021,-0.007l-0.021,-0.007l-0.021,-0.009l-0.02,-0.01l-0.02,-0.01l-0.019,-0.012l-0.019,-0.013l-0.017,-0.013l-0.018,-0.015l-0.016,-0.015l-0.016,-0.016l-0.015,-0.017l-0.014,-0.017l-0.013,-0.019l-0.012,-0.019l-0.011,-0.019l-0.01,-0.02l-0.01,-0.02l-0.008,-0.021l-0.007,-0.022l-0.006,-0.021l-0.005,-0.022l-0.004,-0.022l-0.003,-0.022l-0.001,-0.023l-0.001,-0.022l0,-1.496l-0.001,-0.016l-0.002,-0.025l-0.003,-0.033l-0.006,-0.078l-0.004,-0.045l-0.003,-0.047l-0.002,-0.048l-0.001,-0.026l-0.001,-0.025l0,-0.026l0,-0.026l0.001,-0.027l0.001,-0.027l0.002,-0.029l0.003,-0.032l0.005,-0.031l0.003,-0.021l0.005,-0.02l0.005,-0.021l0.007,-0.024l0.009,-0.026l0.011,-0.029l0.002,-0.003l0.001,-0.028l0.001,-0.02l0.002,-0.02l0.003,-0.023l0.003,-0.025l0.006,-0.027l0.007,-0.031l0.01,-0.034l0.014,-0.038l0.018,-0.041l0.022,-0.038l0.018,-0.026l0.016,-0.021l0,-0.002l0.006,-0.018l0.008,-0.024l0.01,-0.027l0.006,-0.018l0.007,-0.017l0.008,-0.019l0.006,-0.014l0,-0.008l0,-0.03l0.003,-0.037l0.004,-0.022l0.004,-0.021l0.005,-0.022l0.001,-0.004l0.005,-0.017l0.005,-0.017l0.007,-0.017l0.001,-0.004l0.009,-0.02l0.009,-0.02l0.011,-0.019l0.001,-0.003l0.01,-0.016l0.011,-0.016l0.011,-0.015l0.012,-0.015l0.002,-0.003l0.014,-0.016l0.016,-0.016l0.007,-0.007l0.006,-0.012l0.011,-0.02l0.013,-0.018l0.013,-0.018l0.014,-0.018l0.015,-0.017l0.016,-0.015l0.017,-0.016l0.017,-0.014l0.018,-0.013l0.019,-0.013l0.019,-0.011l0.02,-0.011l0.02,-0.009l0.021,-0.009l0.021,-0.007l0.022,-0.007l0.021,-0.005l0.022,-0.004l0.023,-0.003l0.022,-0.002l0.022,-0.001l0.023,0Zm0.031,1.577l0.004,-0.005l0.002,-0.002l-0.006,0.007Zm0.041,-0.249l0.006,-0.006l0,0l-0.006,0.006Zm-0.722,-0.34l-0.001,0.002l0.003,-0.004l-0.002,0.002Zm0.872,-0.109l0.004,-0.005l0,0l-0.004,0.005Zm-0.686,-0.477l-0.001,0.021l0.002,-0.022l0.001,-0.012l-0.002,0.013Z" style="fill:#24e0e2;"/></g><path d="M41.468,50.583l-23.397,0l-0.049,2.432l23.446,0l0,-2.432Z" style="fill:#fff;"/><rect x="24.506" y="37.607" width="17.448" height="2.432" style="fill:#fff;"/><rect x="23.723" y="57.062" width="23.426" height="2.432" style="fill:#fff;"/></g><g><clipPath id="_clip5"><rect x="14.855" y="4.634" width="16.078" height="16.197"/></clipPath><g clip-path="url(#_clip5)"><path d="M30.775,12.596c4.437,0 8.04,3.629 8.04,8.099c0,4.469 -3.603,8.098 -8.04,8.098c-4.437,0 -8.039,-3.629 -8.039,-8.098c0,-4.47 3.602,-8.099 8.039,-8.099Zm0,2.463c3.088,0 5.595,2.525 5.595,5.636c0,3.11 -2.507,5.635 -5.595,5.635c-3.087,0 -5.594,-2.525 -5.594,-5.635c0,-3.111 2.507,-5.636 5.594,-5.636Z" style="fill:#fff;"/></g><clipPath id="_clip6"><rect x="8.743" y="10.768" width="13.275" height="15.253"/></clipPath><g clip-path="url(#_clip6)"><path d="M24.605,18.266c4.421,0 8.01,3.418 8.01,7.627c0,4.209 -3.589,7.626 -8.01,7.626c-4.42,0 -8.009,-3.417 -8.009,-7.626c0,-4.209 3.589,-7.627 8.009,-7.627Zm0,2.32c2.687,-0.015 5.574,2.378 5.574,5.307c0,2.929 -2.497,5.307 -5.574,5.307c-3.076,0 -5.573,-2.378 -5.573,-5.307c0,-2.929 2.497,-5.29 5.573,-5.307Z" style="fill:#fff;"/></g><clipPath id="_clip7"><path d="M14.868,26.209l0,15.902l16.019,0l0,-15.902l-16.019,0Z"/></clipPath><g clip-path="url(#_clip7)"><path d="M22.742,26.365c0,-4.388 3.59,-7.951 8.01,-7.951c4.421,0 8.01,3.563 8.01,7.951c0,4.388 -3.589,7.951 -8.01,7.951c-4.42,0 -8.01,-3.563 -8.01,-7.951Zm2.436,0c0,-3.054 2.498,-5.533 5.574,-5.533c3.077,0 5.574,2.479 5.574,5.533c0,3.054 -2.497,5.533 -5.574,5.533c-3.076,0 -5.574,-2.479 -5.574,-5.533Z" style="fill:#fff;"/></g><clipPath id="_clip8"><path d="M8.701,31.969l0,15.873l16.078,0l0,-15.873l-16.078,0Z"/></clipPath><g clip-path="url(#_clip8)"><path d="M16.605,32.125c0,-4.38 3.602,-7.937 8.039,-7.937c4.437,0 8.039,3.557 8.039,7.937c0,4.38 -3.602,7.936 -8.039,7.936c-4.437,0 -8.039,-3.556 -8.039,-7.936Zm2.445,0c0,-3.048 2.506,-5.523 5.594,-5.523c3.088,0 5.594,2.475 5.594,5.523c0,3.048 -2.506,5.523 -5.594,5.523c-3.088,0 -5.594,-2.475 -5.594,-5.523Z" style="fill:#fff;"/></g><clipPath id="_clip9"><path d="M57.044,40.024l0,-15.903l-15.96,0l0,15.903l15.96,0Z"/></clipPath><g clip-path="url(#_clip9)"><path d="M49.199,39.867c0,4.389 -3.576,7.952 -7.981,7.952c-4.404,0 -7.98,-3.563 -7.98,-7.952c0,-4.388 3.576,-7.951 7.98,-7.951c4.405,0 7.981,3.563 7.981,7.951Zm-2.427,0c0,3.054 -2.489,5.533 -5.554,5.533c-3.065,0 -5.553,-2.479 -5.553,-5.533c0,-3.053 2.488,-5.533 5.553,-5.533c3.065,0 5.554,2.48 5.554,5.533Z" style="fill:#fff;"/></g><clipPath id="_clip10"><rect x="41.114" y="44.861" width="15.843" height="16.05"/></clipPath><g clip-path="url(#_clip10)"><path d="M41.269,53.021c-4.372,0 -7.921,-3.596 -7.921,-8.025c0,-4.429 3.549,-8.024 7.921,-8.024c4.373,0 7.922,3.595 7.922,8.024c0,4.429 -3.549,8.025 -7.922,8.025Zm0,-2.44c-3.042,0 -5.512,-2.503 -5.512,-5.585c0,-3.082 2.47,-5.584 5.512,-5.584c3.043,0 5.513,2.502 5.513,5.584c0,3.082 -2.47,5.585 -5.513,5.585Z" style="fill:#fff;"/></g><clipPath id="_clip11"><rect x="46.893" y="51.341" width="15.843" height="16.05"/></clipPath><g clip-path="url(#_clip11)"><path d="M47.049,59.501c-4.372,0 -7.921,-3.596 -7.921,-8.025c0,-4.429 3.549,-8.024 7.921,-8.024c4.372,0 7.922,3.595 7.922,8.024c0,4.429 -3.55,8.025 -7.922,8.025Zm0,-2.44c-3.042,0 -5.512,-2.503 -5.512,-5.585c0,-3.082 2.47,-5.584 5.512,-5.584c3.043,0 5.513,2.502 5.513,5.584c0,3.082 -2.47,5.585 -5.513,5.585Z" style="fill:#fff;"/></g><clipPath id="_clip12"><path d="M64.963,20.711l0,-15.887l-16.019,0l0,15.887l16.019,0Z"/></clipPath><g clip-path="url(#_clip12)"><path d="M54.65,20.709c-3.9,1.744 -1.151,7.79 -5.571,7.79c-4.421,0 -8.01,-3.56 -8.01,-7.944c0,-4.384 3.589,-7.944 8.01,-7.944c4.42,0 9.573,6.308 5.571,8.098Zm0,0c0,3.051 -2.495,5.374 -5.571,5.374c-3.077,0 -5.574,-2.477 -5.574,-5.528c0,-3.051 2.497,-5.528 5.574,-5.528c3.076,0 5.571,2.631 5.571,5.682Z" style="fill:#fff;"/></g><clipPath id="_clip13"><path d="M62.864,45.731l0,-15.887l-12.12,0l0,15.887l12.12,0Z"/></clipPath><g clip-path="url(#_clip13)"><path d="M54.989,45.575c0,4.384 -3.589,7.944 -8.01,7.944c-4.421,0 -8.01,-3.56 -8.01,-7.944c0,-4.384 3.589,-7.944 8.01,-7.944c4.421,0 8.01,3.56 8.01,7.944Zm-2.436,0c0,3.051 -2.498,5.528 -5.574,5.528c-3.076,0 -5.574,-2.477 -5.574,-5.528c0,-3.051 2.498,-5.528 5.574,-5.528c3.076,0 5.574,2.477 5.574,5.528Z" style="fill:#fff;"/></g><clipPath id="_clip14"><path d="M7.78,50.564l0,17.512l16.019,0l0,-17.512l-16.019,0Z"/></clipPath><g clip-path="url(#_clip14)"><path d="M18.093,50.567c3.899,-1.923 1.151,-8.586 5.571,-8.586c4.421,0 8.01,3.923 8.01,8.755c0,4.833 -3.589,8.756 -8.01,8.756c-4.42,0 -9.574,-6.952 -5.571,-8.925Zm0,0c0,-3.363 2.495,-5.924 5.571,-5.924c3.077,0 5.574,2.731 5.574,6.093c0,3.363 -2.443,6.345 -5.52,6.345c-3.076,0 -5.625,-3.151 -5.625,-6.514Z" style="fill:#fff;"/></g></g></g><g><clipPath id="_clip15"><path d="M29.607,18.11l-8.826,0.607l0.814,11.84l8.826,-0.607l-0.814,-11.84Z"/></clipPath><g clip-path="url(#_clip15)"><path d="M25.24,13.265c-0.134,-0.014 -0.268,-0.016 -0.401,-0.007c-2.437,0.167 -4.151,4.108 -3.829,8.801l1.104,-0.076c-0.242,-3.52 1.043,-6.475 2.871,-6.601c0.1,-0.007 0.2,-0.005 0.301,0.006l-0.046,-2.123Z" style="fill:#2690eb;"/></g><clipPath id="_clip16"><path d="M42.331,37.532l8.782,1.068l-1.381,11.355l-8.782,-1.068l1.381,-11.355Z"/></clipPath><g clip-path="url(#_clip16)"><path d="M46.922,33.106c0.135,-0.006 0.269,-0.001 0.401,0.015c2.425,0.295 3.948,4.183 3.4,8.684l-1.098,-0.133c0.411,-3.376 -0.731,-6.292 -2.55,-6.513c-0.099,-0.012 -0.199,-0.016 -0.3,-0.012l0.147,-2.041Z" style="fill:#278cec;"/></g></g><defs><radialGradient id="_Radial1" cx="0" cy="0" r="1" gradientUnits="userSpaceOnUse" gradientTransform="matrix(35.9991,0,0,36,35.9991,36)"><stop offset="0%" style="stop-color:#2788ed;stop-opacity:1"/><stop offset="53%" style="stop-color:#2690eb;stop-opacity:1"/><stop offset="100%" style="stop-color:#24ace2;stop-opacity:1"/><stop offset="100%" style="stop-color:#24ace2;stop-opacity:1"/></radialGradient></defs></svg>